<svg id="Capa_1" enable-background="new 0 0 505.967 505.967" height="512" viewBox="0 0 505.967 505.967" width="512" xmlns="http://www.w3.org/2000/svg"><g><g><path d="m386.393 417.028c40.912 0 74.116-33.204 74.116-74.116v-166.775c17.217-6.14 29.647-22.439 29.647-41.739v-44.47h-29.647v-29.647h-29.647v29.647h-29.647v44.47c0 19.3 12.43 35.6 29.647 41.739v166.775c0 24.608-19.862 44.47-44.47 44.47h-14.822v29.647h14.823z"/><path d="m60.281 238.16h296.465c8.302 0 14.823-6.521 14.823-14.823v-223.337h-326.111v223.337c0 8.302 6.521 14.823 14.823 14.823zm134.892-169.577 26.682 13.042-18.974 37.949h59.293l-40.319 80.638-26.682-13.042 18.974-37.949h-59.293z"/><circle cx="149.221" cy="402.205" r="14.823"/><circle cx="267.807" cy="402.205" r="14.823"/><path d="m401.216 476.321c-16.306 0-29.647-13.341-29.647-29.647v-29.647h-61.962c-5.928 17.196-22.529 29.647-41.801 29.647-24.608 0-44.47-19.862-44.47-44.47s19.862-44.47 44.47-44.47c19.271 0 35.873 12.451 41.801 29.647h61.962v-122.243c-4.742 1.483-9.487 2.669-14.823 2.669h-296.465c-5.336 0-10.081-1.185-14.823-2.669v181.537c0 16.306-13.341 29.647-29.647 29.647v29.647h385.405zm-251.995-29.647c-24.608 0-44.47-19.862-44.47-44.47s19.862-44.47 44.47-44.47 44.47 19.862 44.47 44.47-19.863 44.47-44.47 44.47z"/></g></g></svg>