<svg enable-background="new 0 0 24 24" height="512" viewBox="0 0 24 24" width="512" xmlns="http://www.w3.org/2000/svg"><path d="m21.25 0h-18.5c-1.517 0-2.75 1.233-2.75 2.75v18.5c0 1.517 1.233 2.75 2.75 2.75h18.5c1.517 0 2.75-1.233 2.75-2.75v-18.5c0-1.517-1.233-2.75-2.75-2.75z" fill="#eceff1"/><path d="m12 0h-9.25c-1.517 0-2.75 1.233-2.75 2.75v18.5c0 1.517 1.233 2.75 2.75 2.75h9.25z" fill="#cdd0d2"/><path d="m8.75 7.75h2.5v9.5c0 .414.336.75.75.75s.75-.336.75-.75v-9.5h2.5c.303 0 .577-.183.693-.463s.052-.603-.163-.817l-3.25-3.25c-.069-.069-.152-.124-.244-.162-.183-.075-.39-.075-.573 0-.091.038-.174.092-.243.162l-3.25 3.25c-.215.215-.279.537-.163.817s.39.463.693.463z" fill="#607d8b"/><path d="m17.25 9h-2.501c-.414 0-.75.336-.75.75s.336.75.75.75h2.501c.138 0 .25.112.25.25v8.5c0 .138-.112.25-.25.25h-10.5c-.138 0-.25-.112-.25-.25v-8.5c0-.138.112-.25.25-.25h2.5c.414 0 .75-.336.75-.75s-.336-.75-.75-.75h-2.5c-.965 0-1.75.785-1.75 1.75v8.5c0 .965.785 1.75 1.75 1.75h10.5c.965 0 1.75-.785 1.75-1.75v-8.5c0-.965-.785-1.75-1.75-1.75z" fill="#607d8b"/><g fill="#546d79"><path d="m12 3.001c-.098 0-.195.019-.287.056-.091.039-.174.093-.243.163l-3.25 3.25c-.215.215-.279.537-.163.817s.39.463.693.463h2.5v9.5c0 .414.336.75.75.75z"/><path d="m9.25 9h-2.5c-.965 0-1.75.785-1.75 1.75v8.5c0 .965.785 1.75 1.75 1.75h5.25v-1.5h-5.25c-.138 0-.25-.112-.25-.25v-8.5c0-.138.112-.25.25-.25h2.5c.414 0 .75-.336.75-.75s-.336-.75-.75-.75z"/></g></svg>